<svg width="32" height="32" xmlns="http://www.w3.org/2000/svg"><g><path d="M12.952 23.501h-.486c-.447 0-4.543-.443-5.344-1.822 2.479.19 4.247-.405 5.12-1.135-1.048-.289-2.923-.46-3.251-2.846.384.104.618.22 1.299.113-1.307-.823-2.758-1.518-2.679-3.64.311.316 1.164.517 1.46.456-.768-.233-2.149-3.242-.974-4.778 1.984 1.79 4.075 3.48 7.804 3.64.227-2.212 1.24-3.696 3.168-4.321 1.84-.479 3.255.26 3.901 1.137.737-.224 1.453-.466 2.193-.684-.004.832-.569 1.462-.935 1.707.747.165 1.423-.474 1.423-.474-.184.962-1.094 1.724-1.707 1.952-.251 6.512-3.463 10.825-10.992 10.695zM16 0C7.164 0 0 7.164 0 16c0 8.837 7.164 16 16 16 8.837 0 16-7.163 16-16 0-8.836-7.163-16-16-16z" fill="#fff"/></g></svg>