<svg width="32" height="32" xmlns="http://www.w3.org/2000/svg"><g><path d="M20.916 16a4.938 4.938 0 11-9.877 0c0-.394.051-.773.138-1.14h-.897v6.838h11.396V14.86h-.897c.086.367.137.746.137 1.14z" fill="#fff"/></g><g><path d="M18.638 13.339h3.039V10.3h-3.039zm0 2.659a2.662 2.662 0 00-2.659-2.659 2.662 2.662 0 00-2.659 2.659 2.662 2.662 0 002.659 2.659 2.662 2.662 0 002.659-2.659z" fill="#fff"/></g><g><path d="M23.965 21.707a2.286 2.286 0 01-2.28 2.28H10.28A2.286 2.286 0 018 21.707V10.303a2.287 2.287 0 012.28-2.28h11.404a2.287 2.287 0 012.28 2.28v11.404zM16 0C7.164 0 0 7.164 0 16c0 8.837 7.164 16 16 16 8.837 0 16-7.163 16-16 0-8.836-7.163-16-16-16z" fill="#fff"/></g></svg>