<svg width="12" height="12" xmlns="http://www.w3.org/2000/svg"><path d="M11.864 3.014a.429.429 0 00-.327-.154H9.225v1.227c0 .563-.484 1.022-1.08 1.022-.594 0-1.078-.458-1.078-1.022V2.86H4.91v1.227c0 .563-.485 1.022-1.08 1.022-.595 0-1.078-.458-1.078-1.022V2.86H.438a.43.43 0 00-.327.154.472.472 0 00-.108.358l.776 7.134c.015.806.642 1.455 1.411 1.455h7.595c.77 0 1.396-.649 1.411-1.455l.776-7.134a.476.476 0 00-.108-.358z"/><g><path d="M3.831 4.499c.239 0 .433-.184.433-.409V1.84c0-.632.672-1.022 1.295-1.022h1.079c.655 0 1.078.401 1.078 1.022v2.25c0 .225.194.409.431.409.239 0 .433-.184.433-.409V1.84C8.579.773 7.763 0 6.638 0H5.559C4.369 0 3.4.826 3.4 1.84v2.25c0 .225.194.409.431.409z"/></g></svg>