<svg width="162" height="36" xmlns="http://www.w3.org/2000/svg"><path d="M148.632 21.658h12v-7.296h-12V8.794h13.2V1.402h-20.88v33.6h21.12V27.61h-13.44zm-17.76 11.928c2.56-1.392 4.56-3.288 6-5.688l-6.624-3.84c-.704 1.28-1.752 2.288-3.144 3.024-1.392.736-2.936 1.104-4.632 1.104-2.976 0-5.352-.912-7.128-2.736-1.776-1.824-2.664-4.24-2.664-7.248s.888-5.424 2.664-7.248c1.776-1.824 4.152-2.736 7.128-2.736 1.696 0 3.232.36 4.608 1.08 1.376.72 2.432 1.736 3.168 3.048l6.624-3.84c-1.472-2.4-3.488-4.296-6.048-5.688-2.56-1.392-5.344-2.088-8.352-2.088-5.024 0-9.192 1.672-12.504 5.016C106.656 9.09 105 13.242 105 18.202c0 4.96 1.656 9.112 4.968 12.456 3.312 3.344 7.48 5.016 12.504 5.016 3.04 0 5.84-.696 8.4-2.088zM92.52 35.002h7.68v-33.6h-7.68zm-14.304 0l10.944-33.6h-8.4l-7.44 24.72-7.44-24.72h-8.4l10.944 33.6zM42.12 21.658h12v-7.296h-12V8.794h13.2V1.402H34.44v33.6h21.12V27.61H42.12zM7.56 27.61V8.794h5.76c2.656 0 4.808.856 6.456 2.568 1.648 1.712 2.472 3.992 2.472 6.84s-.824 5.128-2.472 6.84c-1.648 1.712-3.8 2.568-6.456 2.568zM-.12 1.402v33.6h13.44c4.64 0 8.52-1.608 11.64-4.824 3.12-3.216 4.68-7.208 4.68-11.976 0-4.768-1.56-8.76-4.68-11.976-3.12-3.216-7-4.824-11.64-4.824z" fill="#ffc600"/></svg>