<svg width="27" height="34" xmlns="http://www.w3.org/2000/svg"><path d="M1.925 15.127l11.406 6.791.016 1.044-7.939-4.728-.014 1.416 7.975 4.795.018 1.076-7.97-4.74-.012 1.414 8.017 4.822.046.025 8.14-4.872-.012-5.177 3.414-2.036v10.021L13.467 31.85 1.925 24.979zm11.48-8.34l11.518 6.708-4.479 2.638-7.093-4.218-.014 1.414 5.904 3.51-.86.507-5.03-2.99-.014 1.414 3.827 2.274-.782.522-3.031-1.785-.014 1.412 1.853 1.09-1.8 1.08-11.356-6.746zm11.604 5.34L13.49 5.334l-.001-.104-.087.05-.088-.056v.109L1.925 12.118V3.147l11.543-1.212L25.01 3.147v8.98zM13.62.017L13.472 0 0 1.412v24.661l13.473 8.017 13.43-7.99.042-.025V1.412z" fill="#ffc600"/></svg>